HIERARCHY
ROOT joint_Root
{
	OFFSET 0.0 0.0 0.0
	CHANNELS 6 Xposition Yposition Zposition Zrotation Xrotation Yrotation 
	JOINT Hips
	{
		OFFSET 4.5925 91.4895 -427.239
		CHANNELS 6 Xposition Yposition Zposition Zrotation Xrotation Yrotation 
		JOINT Spine
		{
			OFFSET 15.7357 0.0 0.0
			CHANNELS 6 Xposition Yposition Zposition Zrotation Xrotation Yrotation 
			JOINT Chest
			{
				OFFSET 8.98455 -0.406207 0.0
				CHANNELS 6 Xposition Yposition Zposition Zrotation Xrotation Yrotation 
				JOINT Neck
				{
					OFFSET 16.3773 0.0 0.0
					CHANNELS 6 Xposition Yposition Zposition Zrotation Xrotation Yrotation 
					JOINT Head
					{
						OFFSET 6.45672 0.0 0.0
						CHANNELS 6 Xposition Yposition Zposition Zrotation Xrotation Yrotation 
						End Site
						{
							OFFSET 0.0 0.0 0.0
						}
					}
				}
				JOINT Shoulder_L
				{
					OFFSET 12.9942 -0.242716 4.98039
					CHANNELS 6 Xposition Yposition Zposition Zrotation Xrotation Yrotation 
					JOINT UpperArm_L
					{
						OFFSET 5.34809 0.0 0.0
						CHANNELS 6 Xposition Yposition Zposition Zrotation Xrotation Yrotation 
						JOINT LowerArm_L
						{
							OFFSET 24.3286 1.87007e-05 0.0
							CHANNELS 6 Xposition Yposition Zposition Zrotation Xrotation Yrotation 
							JOINT Hand_L
							{
								OFFSET 22.2916 0.0 0.0
								CHANNELS 6 Xposition Yposition Zposition Zrotation Xrotation Yrotation 
								End Site
								{
									OFFSET 0.0 0.0 0.0
								}
							}
						}
					}
				}
				JOINT Shoulder_R
				{
					OFFSET 12.9945 -0.242716 -4.98039
					CHANNELS 6 Xposition Yposition Zposition Zrotation Xrotation Yrotation 
					JOINT UpperArm_R
					{
						OFFSET -5.34813 0.0 0.0
						CHANNELS 6 Xposition Yposition Zposition Zrotation Xrotation Yrotation 
						JOINT LowerArm_R
						{
							OFFSET -24.3289 0.000322201 0.0
							CHANNELS 6 Xposition Yposition Zposition Zrotation Xrotation Yrotation 
							JOINT Hand_R
							{
								OFFSET -22.2915 -0.000108084 0.0
								CHANNELS 6 Xposition Yposition Zposition Zrotation Xrotation Yrotation 
								End Site
								{
									OFFSET 0.0 0.0 0.0
								}
							}
						}
					}
				}
			}
		}
		JOINT UpperLeg_L
		{
			OFFSET -2.19248 -6.46944 0.0
			CHANNELS 6 Xposition Yposition Zposition Zrotation Xrotation Yrotation 
			JOINT LowerLeg_L
			{
				OFFSET 39.0811 0.0 -1.23785e-05
				CHANNELS 6 Xposition Yposition Zposition Zrotation Xrotation Yrotation 
				JOINT Foot_L
				{
					OFFSET 40.9854 0.0 -1.26872e-05
					CHANNELS 6 Xposition Yposition Zposition Zrotation Xrotation Yrotation 
					JOINT Toes_L
					{
						OFFSET 11.7543 0.0 0.0
						CHANNELS 6 Xposition Yposition Zposition Zrotation Xrotation Yrotation 
						End Site
						{
							OFFSET 0.0 0.0 0.0
						}
					}
				}
			}
		}
		JOINT UpperLeg_R
		{
			OFFSET -2.19251 6.46944 0.0
			CHANNELS 6 Xposition Yposition Zposition Zrotation Xrotation Yrotation 
			JOINT LowerLeg_R
			{
				OFFSET -39.0811 -0.00228153 -0.0401928
				CHANNELS 6 Xposition Yposition Zposition Zrotation Xrotation Yrotation 
				JOINT Foot_R
				{
					OFFSET -40.9854 0.0 0.0
					CHANNELS 6 Xposition Yposition Zposition Zrotation Xrotation Yrotation 
					JOINT Toes_R
					{
						OFFSET -11.7543 0.0 0.0
						CHANNELS 6 Xposition Yposition Zposition Zrotation Xrotation Yrotation 
						End Site
						{
							OFFSET 0.0 0.0 0.0
						}
					}
				}
			}
		}
	}
}
MOTION
Frames:	4
Frame Time:	0.0333333
0.000000 0.000000 0.000000 0.000000 0.000000 -0.000000 -3.223920 88.127000 62.540400 -88.133300 10.434500 171.186000 15.735700 0.000005 -0.000001 123.465000 81.184800 -125.372000 8.984550 -0.406207 -0.000000 7.185120 9.697950 -4.427370 16.377300 -0.000001 -0.000001 0.298124 -2.624100 2.567470 6.456720 -0.000001 -0.000000 -10.726200 -9.450990 4.251030 12.994200 -0.242716 4.980390 -89.488300 -0.989489 -62.693500 5.348090 -0.000007 -0.000001 -63.659300 -9.905700 19.649000 24.328600 0.000019 0.000005 25.896400 14.583900 -62.585500 22.291600 -0.000001 0.000005 0.828967 5.308370 -0.168873 12.994500 -0.242716 -4.980390 89.636600 2.258950 -80.855900 -5.348130 -0.000001 -0.000004 -59.300600 24.820100 -26.441500 -24.328900 0.000322 -0.000009 -11.052100 -2.592040 -76.966600 -22.291500 -0.000108 -0.000004 18.492000 5.495430 -6.351900 -2.192480 -6.469440 -0.000000 175.347000 -12.385800 -42.591500 39.081100 -0.000007 -0.000012 0.537933 -0.723367 36.637800 40.985400 -0.000006 -0.000013 4.173290 -4.738450 -67.851800 11.754300 -0.000000 0.000003 -0.013196 -0.126152 -21.721300 -2.192510 6.469440 -0.000001 172.542000 2.749720 -174.364000 -39.081100 -0.002282 -0.040193 0.492038 -0.141742 73.835100 -40.985400 0.000008 0.000006 -6.360740 9.472710 -11.840800 -11.754300 -0.000006 -0.000006 -0.009406 -0.099147 -20.612000
0.000000 0.000000 0.000000 0.000000 0.000000 -0.000000 -3.457380 84.511200 52.600900 -90.711000 6.494090 170.876000 15.735700 0.000005 -0.000001 109.363000 81.735600 -112.036000 8.984550 -0.406207 -0.000000 7.988290 5.452010 -5.723410 16.377300 -0.000001 -0.000001 -2.187490 -3.318040 2.416990 6.456720 -0.000001 -0.000000 -11.411800 -9.006360 5.244350 12.994200 -0.242716 4.980390 -91.575600 3.499740 -65.729100 5.348090 -0.000007 -0.000001 -63.792800 -7.607490 11.202100 24.328600 0.000019 0.000005 29.592500 14.282800 -66.518100 22.291600 -0.000001 0.000005 1.485490 5.242500 1.630120 12.994500 -0.242716 -4.980390 88.991200 6.436870 -81.074100 -5.348130 -0.000001 -0.000004 -59.381200 25.412200 -20.348900 -24.328900 0.000322 -0.000009 -12.525400 -5.453920 -66.844900 -22.291500 -0.000108 -0.000004 16.022500 5.524380 -7.569180 -2.192480 -6.469440 -0.000000 173.809000 -7.291280 -46.217800 39.081100 -0.000007 -0.000012 -0.011112 0.008588 52.313900 40.985400 -0.000006 -0.000013 3.843250 -4.875620 -66.292900 11.754300 -0.000000 0.000003 -0.004545 -0.057001 -18.895700 -2.192510 6.469440 -0.000001 172.902000 4.948650 172.910000 -39.081100 -0.002282 -0.040193 0.576790 0.076865 97.642600 -40.985400 0.000008 0.000006 -8.283010 5.816830 -5.212570 -11.754300 -0.000006 -0.000006 -0.007961 -0.087713 -20.144800
0.000000 0.000000 0.000000 0.000000 0.000000 -0.000000 -4.174910 81.433000 42.888500 -93.692900 2.683510 171.727000 15.735700 0.000005 -0.000001 96.815400 81.243600 -100.170000 8.984550 -0.406207 -0.000000 9.695370 2.009240 -6.875710 16.377300 -0.000001 -0.000001 -4.513650 -4.627180 1.537680 6.456720 -0.000001 -0.000000 -11.990000 -10.265200 6.622510 12.994200 -0.242716 4.980390 -92.302300 5.452200 -67.064900 5.348090 -0.000007 -0.000001 -65.327100 -0.551517 -5.349240 24.328600 0.000019 0.000005 30.379800 13.841600 -67.799700 22.291600 -0.000001 0.000005 0.480028 5.276570 0.715717 12.994500 -0.242716 -4.980390 88.423000 9.472210 -80.503000 -5.348130 -0.000001 -0.000004 -59.379100 25.775900 -14.141200 -24.328900 0.000322 -0.000009 -14.779800 -11.817400 -52.204800 -22.291500 -0.000108 -0.000004 15.730500 5.576250 -9.977470 -2.192480 -6.469440 -0.000000 171.078000 -2.585170 -43.358000 39.081100 -0.000007 -0.000012 -0.692566 0.351161 63.114600 40.985400 -0.000006 -0.000013 3.101080 -6.793210 -78.769100 11.754300 -0.000000 0.000003 -0.000044 -0.000507 -16.597300 -2.192510 6.469440 -0.000001 171.925000 6.500870 157.321000 -39.081100 -0.002282 -0.040193 0.375752 0.203289 118.638000 -40.985400 0.000008 0.000006 -8.605530 5.162430 1.446570 -11.754300 -0.000006 -0.000006 -0.008119 -0.089000 -20.197400
0.000000 0.000000 0.000000 0.000000 0.000000 -0.000000 -4.528000 79.575100 32.573300 -93.933000 0.356662 172.704000 15.735700 0.000005 -0.000001 90.849100 80.957800 -93.987700 8.984550 -0.406207 -0.000000 10.329600 0.195883 -6.290790 16.377300 -0.000001 -0.000001 -4.303080 -5.333260 1.577320 6.456720 -0.000001 -0.000000 -11.484100 -10.193800 6.889070 12.994200 -0.242716 4.980390 -91.168100 3.077400 -69.216200 5.348090 -0.000007 -0.000001 -68.202900 5.904360 -19.161800 24.328600 0.000019 0.000005 30.497000 9.680080 -74.072100 22.291600 -0.000001 0.000005 0.516355 5.328920 -0.751425 12.994500 -0.242716 -4.980390 88.534400 8.302130 -79.951200 -5.348130 -0.000001 -0.000004 -63.527400 25.743900 -5.634350 -24.328900 0.000322 -0.000009 -9.888520 -13.650100 -36.424800 -22.291500 -0.000108 -0.000004 17.686700 5.580030 -10.206200 -2.192480 -6.469440 -0.000000 170.917000 -1.511310 -35.375000 39.081100 -0.000007 -0.000012 -0.997785 0.423695 66.994700 40.985400 -0.000006 -0.000013 2.760930 -6.761680 -89.389300 11.754300 -0.000000 0.000003 -0.000083 -0.000878 -16.611400 -2.192510 6.469440 -0.000001 173.416000 6.253760 140.242000 -39.081100 -0.002282 -0.040193 0.042542 0.034758 131.630000 -40.985400 0.000008 0.000006 -6.630400 1.851870 6.612080 -11.754300 -0.000006 -0.000006 -0.008753 -0.094071 -20.404500
